<?xml version="1.0" encoding="utf-8"?>
<svg version="1.1" xmlns:xlink="http://www.w3.org/1999/xlink" width="50px" height="51px" xmlns="http://www.w3.org/2000/svg">
  <g transform="matrix(1 0 0 1 -14 -15 )">
    <path d="M 39 15  C 53 15  64 26.22  64 40.5  C 64 54.78  53 66  39 66  C 25 66  14 54.78  14 40.5  C 14 26.22  25 15  39 15  Z " fill-rule="nonzero" fill="#d7d7d7" stroke="none" />
    <path d="M 39 15.5  C 52.72 15.5  63.5 26.5  63.5 40.5  C 63.5 54.5  52.72 65.5  39 65.5  C 25.28 65.5  14.5 54.5  14.5 40.5  C 14.5 26.5  25.28 15.5  39 15.5  Z " stroke-width="1" stroke="#797979" fill="none" />
  </g>
</svg>