<?xml version="1.0" encoding="utf-8"?>
<svg version="1.1" xmlns:xlink="http://www.w3.org/1999/xlink" width="50px" height="50px" xmlns="http://www.w3.org/2000/svg">
  <g transform="matrix(1 0 0 1 -18 -114 )">
    <path d="M 43 114  C 57 114  68 125  68 139  C 68 153  57 164  43 164  C 29 164  18 153  18 139  C 18 125  29 114  43 114  Z " fill-rule="nonzero" fill="#f4f4f4" stroke="none" />
    <path d="M 43 114.5  C 56.72 114.5  67.5 125.28  67.5 139  C 67.5 152.72  56.72 163.5  43 163.5  C 29.28 163.5  18.5 152.72  18.5 139  C 18.5 125.28  29.28 114.5  43 114.5  Z " stroke-width="1" stroke="#797979" fill="none" />
  </g>
</svg>