<?xml version="1.0" encoding="utf-8"?>
<svg version="1.1" xmlns:xlink="http://www.w3.org/1999/xlink" width="92px" height="92px" xmlns="http://www.w3.org/2000/svg">
  <g transform="matrix(1 0 0 1 -42 -359 )">
    <path d="M 88 362  C 112.08 362  131 380.92  131 405  C 131 429.08  112.08 448  88 448  C 63.92 448  45 429.08  45 405  C 45 380.92  63.92 362  88 362  Z " fill-rule="nonzero" fill="#ffffff" stroke="none" />
    <path d="M 88 361  C 112.64 361  132 380.36  132 405  C 132 429.64  112.64 449  88 449  C 63.36 449  44 429.64  44 405  C 44 380.36  63.36 361  88 361  Z " stroke-width="4" stroke="#a5a5a5" fill="none" />
  </g>
</svg>